<?xml version="1.0" standalone="no"?>
<!DOCTYPE svg PUBLIC "-//W3C//DTD SVG 20010904//EN"
 "http://www.w3.org/TR/2001/REC-SVG-20010904/DTD/svg10.dtd">
<svg version="1.0" xmlns="http://www.w3.org/2000/svg"
 width="260.000000pt" height="260.000000pt" viewBox="0 0 260.000000 260.000000"
 preserveAspectRatio="xMidYMid meet">
<metadata>
Created by potrace 1.11, written by Peter Selinger 2001-2013
</metadata>
<g transform="translate(0.000000,260.000000) scale(0.100000,-0.100000)"
fill="#000000" stroke="none">
<path d="M0 1300 l0 -1300 1300 0 1300 0 0 1300 0 1300 -1300 0 -1300 0 0
-1300z m321 873 c0 -225 3 -403 5 -398 3 6 67 188 142 405 l137 395 100 3 100
2 142 -407 142 -408 0 408 1 407 120 0 120 0 0 -580 0 -580 -179 0 -179 0 -25
73 c-186 547 -240 703 -246 709 -7 8 -21 -35 -176 -514 l-86 -268 -179 0 -180
0 0 580 0 580 120 0 120 0 1 -407z m732 -1065 c186 -548 240 -704 246 -710 7
-8 21 35 176 515 l86 267 179 0 180 0 0 -580 0 -580 -120 0 -120 0 -1 408 c0
224 -3 403 -5 397 -3 -5 -67 -188 -142 -405 l-137 -395 -100 -3 -100 -2 -142
407 -142 408 0 -407 -1 -408 -120 0 -120 0 0 580 0 580 179 0 179 0 25 -72z"/>
</g>
</svg>
